<svg xmlns="http://www.w3.org/2000/svg" height="48" viewBox="0 -960 960 960" width="48"><path d="M444-839v-163h73v163h-73Zm-196 76L128-884l51-52 121 121-52 52ZM145.07-33q-13.82 0-23.445-9.2T112-65v-330.286l86-248.365q5.643-19.149 22.184-31.249Q236.724-687 258-687h112v-77h168q-26.118 29.522-41.559 65.297Q481-662.929 478-623v1H256l-57 167h322q14 22 33.5 40.5T598-382H177v200h606v-167q16.754-4.4 33.292-10.343Q832.831-365.286 848-373v307.599q0 13.851-9.795 23.126T814.589-33H791.07q-13.82 0-23.445-9.2T758-65v-52H201v52q0 13.6-9.795 22.8-9.795 9.2-23.616 9.2H145.07ZM247-252h123.372Q383-252 392-261.388t9-21.787q0-12.4-9.337-21.613Q382.325-314 370-314H247v62Zm466 0v-62H589.628Q577-314 568-304.612t-9 21.787q0 12.4 9.338 21.613Q577.675-252 590-252h123ZM177-382v200-200Zm527-123 146-148-30-31-116 118-63-64-31 31 94 94Zm27-287q79.51 0 136.755 57.245Q925-677.51 925-597.5q0 80.01-57.245 136.755Q810.51-404 730.5-404q-80.01 0-136.755-56.745Q537-517.49 537-598q0-79.51 56.745-136.755Q650.49-792 731-792Z"/></svg>