<svg xmlns="http://www.w3.org/2000/svg" height="48" viewBox="0 -960 960 960" width="48"><path d="M688-318q-52.917 0-89.958-36.939Q561-391.877 561-444.647q0-52.77 36.939-89.561Q634.877-571 687.647-571q52.77 0 89.561 36.75Q814-497.5 814-445q0 52.917-36.75 89.958Q740.5-318 688-318Zm-.5-73q23.475 0 38.487-15.013Q741-421.025 741-444.5t-15.238-38.487Q710.525-498 688-498q-23.975 0-38.987 15.237Q634-467.525 634-445q0 23.975 15.013 38.987Q664.025-391 687.5-391ZM441-23v-126.861q0-23.617 11.211-43.277Q463.421-212.797 483-225q29-17 60.5-29.5T608-276l80 103 79-103q33 9 64.588 21.568 31.588 12.568 60.492 29.799 19.689 12.068 30.805 31.705Q934-173.291 934-151v128H441Zm73-73h141l-75.5-97q-16.5 8-33.5 16t-32 17.8V-96Zm206 0h141v-63q-14.84-8.8-31.42-17.4Q813-185 795.5-193L720-96Zm-65 0Zm65 0Zm-543-8q-30.75 0-51.875-21.125T104-177v-605q0-29.75 21.125-51.375T177-855h606q30.75 0 51.875 21.625T856-782v255q-12-25-31.5-43.5T783-604v-178H177v605h208q-2 6.833-3 13.667-1 6.833-1 13.333v46H177Zm95-513h349q15.25-7 32.465-10 17.216-3 34.535-4v-59H272v73Zm0 174h229q0-17.885 3.5-36.943Q508-499 516-516H272v73Zm0 175h168q15-11 31.5-19t33.5-15v-39H272v73Zm-95 91v-605 178-27 454Zm511-268Z"/></svg>