<svg xmlns="http://www.w3.org/2000/svg" height="48" viewBox="0 -960 960 960" width="48"><path d="M483-257 311-86q-21.753 23-52.944 23Q226.865-63 206-86L86-206q-23-20.876-22.5-51.938T86-311l170-171L86-655q-22-20.753-24-49.876Q60-734 81-755l125-125q20.326-21 51.472-21T311-880l172 173 172-173q20.753-21 51.876-21Q738-901 760-880l120 120q21 21.753 21 52.876Q901-676 880-655L708-482l172 171q21 21.708 21 52.854T880-206L754-81q-21 21-50 19t-49-24L483-257Zm.193-263q17.382 0 29.594-12.406Q525-544.811 525-562.193q0-17.382-12.405-29.594Q500.189-604 482.807-604q-17.382 0-29.595 12.406Q441-579.189 441-561.807q0 17.382 12.405 29.594Q465.811-520 483.193-520ZM305-531l128-127-173-171-125 125 170 173Zm99.193 90q17.382 0 29.595-12.405Q446-465.811 446-483.193q0-17.382-12.405-29.594Q421.189-525 403.807-525q-17.382 0-29.595 12.405Q362-500.189 362-482.807q0 17.382 12.405 29.595Q386.811-441 404.193-441Zm79 79q17.382 0 29.594-12.405Q525-386.811 525-404.193q0-17.382-12.405-29.595Q500.189-446 482.807-446q-17.382 0-29.595 12.405Q441-421.189 441-403.807q0 17.382 12.405 29.595Q465.811-362 483.193-362Zm78-79q17.382 0 29.594-12.405Q603-465.811 603-483.193q0-17.382-12.406-29.594Q578.189-525 560.807-525q-17.382 0-29.594 12.405Q519-500.189 519-482.807q0 17.382 12.406 29.595Q543.811-441 561.193-441ZM532-308l172 173 125-125-171-172-126 124ZM342-623Zm281 281Z"/></svg>