<svg xmlns="http://www.w3.org/2000/svg" height="48" viewBox="0 -960 960 960" width="48"><path d="m697-108 48-49-84-84-49 48q-18 18.32-17.5 43.16Q595-125 612.062-108q17.063 17 41.881 17.5Q678.76-90 697-108Zm98-99 50-49q17-17.08 16.5-41.92-.5-24.84-17.562-43.08-18.303-17-42.401-17-24.097 0-41.537 17l-49 50 84 84ZM748-57q-39.426 39-93.713 39.5Q600-17 561-57q-39-37.674-39-92.624 0-54.95 39-94.376l148-148q37.674-38 92.624-38 54.95 0 94.376 38 39 40.426 38.5 94.713Q934-243 896-205L748-57ZM177-180v-605 605Zm0 73q-30.75 0-51.875-21.125T104-180v-605q0-30.75 21.125-51.875T177-858h193q11-35 41-58t69-23q39 0 69 23t41 58h193q30.75 0 51.875 21.125T856-785v301q-18-5-36.5-6.5T783-489v-296H177v605h289q-4 18-3.5 36.5T467-107H177Zm303-698q14 0 24.5-10.5T515-840q0-14-10.5-24.5T480-875q-14 0-24.5 10.5T445-840q0 14 10.5 24.5T480-805ZM272-621v-73h416v73H272Zm0 175v-73h416v67q-5 3-10 6.5t-9 7.5l9-8H272Zm0 174v-73h305l-59 59q-3.524 3.043-6.762 7.022Q508-275 505-272H272Z"/></svg>