<svg xmlns="http://www.w3.org/2000/svg" height="48" viewBox="0 -960 960 960" width="48"><path d="M548-61q-117 0-194-82.5T277-341v-36q-92-13-153-82.648T63-625v-228h128v-45h73v163h-73v-45h-55v154.677q0 74.623 51.704 126.473Q239.409-447 313.504-447q74.096 0 126.296-51.85T492-625.323V-780h-55v45h-73v-163h73v45h128v228q0 95.704-61.5 165.352Q442-390 350-377v35.887q0 84.63 55.324 145.872Q460.647-134 547.824-134 629-134 687-194.727q58-60.726 58-146.05V-420q-35-11-57.5-41.535-22.5-30.534-22.5-68.503 0-48.734 33.409-82.848Q731.819-647 781.118-647q49.299 0 83.09 34.114Q898-578.772 898-530.038q0 37.969-23 68.503Q852-431 818-420v79q0 117-79 198.5T548-61Zm232.825-426q18.625 0 31.4-12.312Q825-511.624 825-529.825q0-18.625-12.605-31.4Q799.791-574 781.158-574t-30.895 12.605Q738-548.791 738-530.158t12.312 30.895Q762.624-487 780.825-487Zm.175-43Z"/></svg>