<svg xmlns="http://www.w3.org/2000/svg" height="48" viewBox="0 -960 960 960" width="48"><path d="m317-47-73-55v-182h-54q-27.363 0-46.681-19.319Q124-322.638 124-350v-315h-10q-13.75-2-21.875-11.675Q84-686.351 84-700.175 84-715 94.625-726T120-737h124v-77h-24q-14.75 0-25.375-10.675Q184-835.351 184-850.175 184-865 194.625-876T220-887h120q14.75 0 25.875 11.175 11.125 11.176 11.125 26Q377-835 365.875-824.5T340-814h-23v77h123q14.75 0 25.875 11.175 11.125 11.176 11.125 26 0 13.825-8.625 23.325T447-665h-10v315q0 27.362-19.819 46.681T370-284h-53v237ZM197-357h167v-67h-74q-11.2 0-18.6-7.357-7.4-7.357-7.4-18.5T271.4-469q7.4-8 18.6-8h74v-67h-74q-11.2 0-18.6-7.357-7.4-7.357-7.4-18.5T271.4-589q7.4-8 18.6-8h74v-67H197v307ZM600-74q-27.362 0-46.681-19.319Q534-112.637 534-140v-266q0-37 8-53t22-30q22-22 26-31.3t4-22.7v-27h-10q-13.75-1-21.875-10.675-8.125-9.676-8.125-24.5Q554-620 564.5-631t25.5-11h200q14.75 0 25.875 11.175 11.125 11.176 11.125 26 0 14.825-8.625 24.325T797-570h-10v27.286Q787-531 792.5-520q5.5 11 26.5 32 14 14 21 29t7 53v266q0 27.363-19.819 46.681Q807.362-74 780-74H600Zm7-313h167v-19q0-17.162-8-29.581T743-465q-16-19-22.5-36.746Q714-519.491 714-543v-26h-47v26q0 24-6.5 41.5T638-466q-15 17-23 30.079T607-406v19Zm0 120h167v-67H607v67Zm0 120h167v-67H607v67Zm0-120h167-167Z"/></svg>