<svg xmlns="http://www.w3.org/2000/svg" height="48" viewBox="0 -960 960 960" width="48"><path d="M479.891-62q-143.469 0-239.18-97.888Q145-257.776 145-406.073 145-512 228.5-635 312-758 480-899q168 141 251.5 264.063Q815-511.874 815-406.093 815-258 719.18-160q-95.821 98-239.289 98Zm.016-73Q592-135 667-212.378q75-77.379 75-194.035Q742-486 674.506-588q-67.495-102-194.5-214Q353-690 285.5-587.764 218-485.527 218-406.033q0 116.519 74.907 193.776t187 77.257ZM353-250h255v-73H353v73Zm91-101h73v-91h91v-73h-91v-91h-73v91h-91v73h91v91Zm36-130Z"/></svg>